<svg width="461" height="83" viewBox="0 0 461 83" fill="none" xmlns="http://www.w3.org/2000/svg">
<path d="M19.0765 4.41833C19.0765 4.41833 12.3662 10.5682 11.249 11.4998C10.1319 12.4314 10.4917 12.7116 12.832 12.4314C15.1723 12.1511 25.5067 10.2085 31.1908 8.47787C36.8749 6.74726 40.4156 4.69099 41.5327 3.39588C42.6499 2.10076 42.559 0.692039 41.5327 0.320924C40.5065 -0.0501901 40.6012 1.15783 36.4091 2.36963C32.217 3.58143 24.1093 4.513 19.0765 4.41833Z" fill="white"/>
<path d="M44.0472 0.252719C45.9899 0.612473 49.9207 3.86162 45.4446 7.02745C40.9685 10.1933 35.0117 12.6207 25.5975 15.3207C16.1833 18.0208 6.66313 18.4903 6.12539 18.5812C5.58766 18.6721 4.26225 22.0311 3.33068 24.2615C2.55461 26.1437 1.90065 28.074 1.37286 30.0403C0.812403 31.9981 1.46375 31.8088 4.53869 31.2521C7.61364 30.6955 28.1158 25.7536 34.9171 23.1444C41.7183 20.5353 51.6892 15.0594 54.4839 12.5411C57.2786 10.0229 56.7219 5.44832 55.5101 3.8654C54.3741 2.38852 51.7952 1.19565 49.0346 0.419343C48.8338 0.358752 40.6958 -0.375903 44.0472 0.252719Z" fill="white"/>
<path d="M54.6695 0.691993C57.0136 1.73339 64.8259 5.07342 63.3376 11.78C61.9403 17.3694 52.7344 24.0798 40.321 28.6467C27.9076 33.2137 28.203 33.2099 18.2397 35.7282C12.6345 37.1766 6.94264 38.2657 1.19871 38.9887C-0.482667 39.269 -0.0168786 41.5032 0.354236 44.4873C0.72535 47.4713 1.28581 52.2201 1.66071 53.1517C2.03561 54.0832 2.0394 53.7121 5.20145 53.1517C8.36349 52.5912 32.13 46.6307 39.7681 43.461C47.4062 40.2914 59.7098 35.0769 64.6479 30.6955C69.586 26.314 73.5016 21.5653 73.5016 17.093C73.5016 12.6207 70.1465 8.98526 66.6057 5.91032C63.065 2.83537 60.9254 2.27491 58.5927 1.34334C56.9795 0.760158 53.2721 -0.00100616 54.6695 0.691993Z" fill="white"/>
<path d="M6.21631 60.2333C8.39377 60.2333 25.6922 56.507 36.1327 53.0609C48.2924 49.5088 59.2327 43.2756 64.6441 39.8258C70.0556 36.3759 76.3834 29.3929 77.7846 25.7575C79.1857 22.1221 77.7846 18.0815 76.4781 15.8169C75.1716 13.5524 78.807 18.2102 80.0189 20.4445C81.2307 22.6788 84.7714 29.1127 83.0029 36.0995C81.2344 43.0863 75.7321 48.4939 65.019 54.9241C54.3059 61.3542 40.4043 65.5462 29.6079 68.2463C18.8115 70.9463 16.0054 71.3213 14.2331 71.6015C12.9304 71.6204 10.8817 69.087 9.0186 66.7581C7.15545 64.4291 3.70182 60.699 6.21631 60.2333Z" fill="white"/>
<path d="M25.9385 74.574C20.6141 75.4298 17.3044 75.7101 20.0082 77.1907C22.0569 78.4025 27.9304 81.4775 31.4711 81.4775C35.0119 81.4775 51.6893 76.9332 58.0247 74.6611C64.3602 72.389 72.9337 67.0192 76.4744 63.7587C80.0152 60.4982 84.1164 52.9509 84.9533 47.0964C85.7902 41.2419 85.2335 38.9887 84.9533 37.8715C84.673 36.7544 85.3319 41.3176 82.6243 47.0964C79.9167 52.8752 70.885 59.3015 61.0088 64.1374C51.1326 68.9732 35.8147 72.9911 25.9385 74.574Z" fill="white"/>
<path d="M37.6513 82.7839C33.5311 83.3141 51.2613 83.0187 58.0095 80.1785C64.7578 77.3384 72.3315 71.8966 76.1184 67.3978C79.9053 62.899 73.1571 71.0673 61.9138 76.1569C54.2219 79.619 46.0352 81.8551 37.6513 82.7839Z" fill="white"/>
<path d="M124.392 56.288C129.072 56.288 132.564 54.02 134.472 50.6L131.34 48.656C130.008 51.284 127.452 53.084 124.392 53.084C119.424 53.084 116.328 49.16 116.328 43.94C116.328 38.72 119.424 34.796 124.392 34.796C127.416 34.796 129.972 36.56 131.34 39.188L134.472 37.244C132.564 33.824 129.072 31.556 124.392 31.556C116.976 31.556 112.584 37.1 112.584 43.94C112.584 50.744 116.976 56.288 124.392 56.288ZM138.37 56H141.79V47.36H146.398L147.73 47.288L152.446 56H155.938L150.862 46.604C154.102 45.38 155.938 42.716 155.938 39.584C155.938 35.3 152.518 31.844 146.83 31.844H138.37V56ZM141.79 44.12V35.048H146.83C150.286 35.048 152.446 37.028 152.446 39.584C152.446 42.176 150.286 44.12 146.83 44.12H141.79ZM176.535 31.844H172.575L166.527 40.844L160.479 31.844H156.591L164.835 44.048V56H168.255V44.048L176.535 31.844ZM179.503 56H182.923V47.36H187.963C193.651 47.36 197.071 43.868 197.071 39.584C197.071 35.3 193.651 31.844 187.963 31.844H179.503V56ZM182.923 44.12V35.048H187.963C191.419 35.048 193.579 37.028 193.579 39.584C193.579 42.176 191.419 44.12 187.963 44.12H182.923ZM219.381 31.844H200.229V35.264H208.077V56H211.497V35.264H219.381V31.844ZM222.605 56H226.025V31.844H222.605V56ZM241.321 56.288C248.701 56.288 253.057 50.744 253.057 43.94C253.057 37.1 248.701 31.556 241.321 31.556C233.905 31.556 229.549 37.1 229.549 43.94C229.549 50.744 233.905 56.288 241.321 56.288ZM241.321 53.084C236.353 53.084 233.221 49.16 233.221 43.94C233.221 38.72 236.353 34.796 241.321 34.796C246.253 34.796 249.421 38.72 249.421 43.94C249.421 49.16 246.253 53.084 241.321 53.084ZM271.903 31.844V50.636L259.951 31.844H256.495V56H259.915V37.208L271.867 56H275.323V31.844H271.903ZM304.247 31.844V50.636L292.295 31.844H288.839V56H292.259V37.208L304.211 56H307.667V31.844H304.247ZM328.709 35.264V31.844H312.113V56H328.709V52.58H315.533V45.488H322.877V42.068H315.533V35.264H328.709ZM351.392 31.844H332.24V35.264H340.088V56H343.508V35.264H351.392V31.844ZM384.65 31.844L378.53 50.564L372.23 31.844H369.098L362.798 50.564L356.678 31.844H353.15L361.034 56H364.526L370.646 36.776L376.766 56H380.294L388.142 31.844H384.65ZM400.508 56.288C407.888 56.288 412.244 50.744 412.244 43.94C412.244 37.1 407.888 31.556 400.508 31.556C393.092 31.556 388.736 37.1 388.736 43.94C388.736 50.744 393.092 56.288 400.508 56.288ZM400.508 53.084C395.54 53.084 392.408 49.16 392.408 43.94C392.408 38.72 395.54 34.796 400.508 34.796C405.44 34.796 408.608 38.72 408.608 43.94C408.608 49.16 405.44 53.084 400.508 53.084ZM415.683 56H419.103V47.36H423.711L425.043 47.288L429.759 56H433.251L428.175 46.604C431.415 45.38 433.251 42.716 433.251 39.584C433.251 35.3 429.831 31.844 424.143 31.844H415.683V56ZM419.103 44.12V35.048H424.143C427.599 35.048 429.759 37.028 429.759 39.584C429.759 42.176 427.599 44.12 424.143 44.12H419.103ZM454.839 31.844H450.843L440.583 44.516V31.844H437.163V56H440.583V49.52L444.003 45.308L450.771 56H454.515L446.055 42.716L454.839 31.844Z" fill="white"/>
</svg>
