<svg width="217" height="84" viewBox="0 0 217 84" fill="none" xmlns="http://www.w3.org/2000/svg">
<path d="M82.908 55H87.516V46.936H91.656C97.524 46.936 101.016 43.336 101.016 38.872C101.016 34.444 97.524 30.844 91.656 30.844H82.908V55ZM87.516 42.58V35.164H91.656C94.536 35.164 96.372 36.712 96.372 38.872C96.372 41.032 94.536 42.58 91.656 42.58H87.516ZM111.308 55.288C116.456 55.288 120.596 51.112 120.596 46C120.596 40.888 116.456 36.712 111.308 36.712C106.196 36.712 102.02 40.888 102.02 46C102.02 51.112 106.196 55.288 111.308 55.288ZM111.488 50.968C108.752 50.968 106.808 48.88 106.808 46C106.808 43.12 108.752 41.032 111.488 41.032C114.188 41.032 116.168 43.12 116.168 46C116.168 48.88 114.188 50.968 111.488 50.968ZM123.513 55H128.121V28.18H123.513V55ZM142.94 37L139.124 47.188L135.092 37H130.484L136.856 53.164L133.58 61.876H138.188L147.548 37H142.94ZM150.987 55H156.459C164.631 55 169.491 49.564 169.491 42.904C169.491 36.208 164.631 30.808 156.459 30.808H150.987V55ZM153.363 52.732V33.076H156.459C162.939 33.076 166.899 37.396 166.899 42.904C166.899 48.412 162.939 52.732 156.459 52.732H153.363ZM189.012 33.184V30.808H173.136V55H189.012V52.624H175.512V43.876H183.108V41.5H175.512V33.184H189.012ZM211.869 55L203.661 42.796L211.725 30.808H209.025L202.329 40.78L195.597 30.808H192.897L200.961 42.796L192.753 55H195.453L202.329 44.812L209.169 55H211.869Z" fill="white"/>
<path fill-rule="evenodd" clip-rule="evenodd" d="M36.4824 9.01274C37.4313 9.56063 38.501 10.178 39.6431 10.8372C47.0134 15.0911 57.4015 21.0868 57.8181 21.3922C58.4503 21.8558 58.5135 21.9191 57.8181 22.3194C57.1226 22.7198 54.4885 24.2371 54.4885 24.2371C54.4885 24.2371 33.6259 36.291 32.4669 36.9864C31.3079 37.6819 30.486 37.8083 29.4956 37.2182C29.4956 37.2182 24.7119 34.5841 23.574 33.8676C23.4152 33.7676 23.2593 33.673 23.1104 33.5826L23.1103 33.5825C22.192 33.0251 21.5397 32.6292 22.1199 32.1396C22.8154 31.5495 25.2177 30.4116 25.2177 30.4116C25.5812 30.195 25.8652 29.987 26.1021 29.8135C26.5106 29.5143 26.7787 29.3179 27.0722 29.3579C27.5358 29.4211 28.8845 30.4116 29.5799 30.9384C29.6536 30.9943 29.7215 31.0476 29.7851 31.0975C30.3212 31.5186 30.5579 31.7044 31.5186 31.2334C32.5933 30.7066 46.3542 22.7198 46.8178 22.3827C47.2814 22.0244 47.45 21.624 47.0496 21.329C46.8496 21.1816 43.4302 19.2036 39.9584 17.1953L39.9583 17.1952C36.4813 15.1839 32.9519 13.1422 32.5512 12.8786C31.7504 12.3518 30.8653 12.0146 30.2753 12.3518C30.1314 12.4392 29.1526 13.0004 27.7448 13.8076L27.7444 13.8078L27.7436 13.8083C23.3786 16.3111 14.8907 21.1779 14.365 21.624C13.8845 22.0317 14.6011 22.3488 15.3958 22.7005C15.7513 22.8579 16.1225 23.0221 16.4091 23.2045C16.5343 23.2842 16.6503 23.3562 16.756 23.4218C17.4336 23.8424 17.6923 24.003 17.2731 24.2582C16.8095 24.5532 14.0067 26.3655 13.3113 26.9134C12.6159 27.4613 12.3841 27.356 11.794 26.9345C11.4221 26.6688 8.48828 24.9799 6.25381 23.6936L6.2538 23.6935C4.94325 22.9391 3.87329 22.3231 3.7019 22.2141C3.23829 21.9191 2.94326 21.624 3.3015 21.3922C3.65975 21.1604 11.2251 17.0301 11.2251 17.0301C11.2251 17.0301 20.4025 11.7433 25.5775 8.7084L19.4607 5.09094L21.2428 0L36.4824 9.01274ZM16.8305 34.605V33.0889C17.0536 32.9783 26.019 27.91 29.3902 25.6489C30.0434 25.2063 31.2025 24.9745 31.8557 25.3749C32.509 25.7753 33.0991 26.2811 33.7313 26.8922C34.3635 27.5033 34.7639 27.2715 35.3539 26.9133C35.944 26.555 40.0743 23.9419 40.0743 23.9419C40.0743 23.9419 33.5416 20.212 32.783 19.8537C32.0243 19.5166 30.5071 18.8633 29.5166 19.4533L29.2024 19.634C26.8348 20.995 13.7732 28.5039 12.7423 28.9995C11.6465 29.5264 11.3936 30.5168 11.5833 31.1068C11.7089 31.4978 12.0011 31.6482 12.5764 31.9443L12.5764 31.9444C12.8693 32.0951 13.2356 32.2836 13.6906 32.5609C15.0182 33.3828 16.8305 34.605 16.8305 34.605ZM27.9572 53.7819L22.5835 50.6841L22.5625 46.048L5.61954 36.3754V56.121L22.5625 65.4986L22.4992 61.1786L28.1047 64.2132L28.1046 64.2613H28.2344V81.6966L22.8047 82.7222V72.4046C20.6088 71.1198 18.4742 69.8608 18.4742 69.8608C18.4742 69.8608 1.40488 59.7667 0.814831 59.3663L0.713485 59.2977C0.219364 58.964 0.174975 58.934 0.0561954 58.4391C-0.0702442 57.9123 0.0561954 38.9252 0.0561954 38.9252V27.2717C0.0561954 26.6395 0.583027 26.9135 1.10986 27.2717C1.37804 27.4541 7.54379 31.0166 13.6807 34.5625C19.5994 37.9823 25.4912 41.3866 26.0395 41.728C26.2416 41.8562 26.4244 41.9687 26.5899 42.0706L26.5903 42.0709C27.3219 42.5212 27.7166 42.7641 27.9572 43.2453C28.2522 43.8142 27.9572 53.7819 27.9572 53.7819ZM11.4779 41.7068L16.7884 44.8467L16.7251 49.6514C16.7251 49.6514 29.8327 57.006 30.5281 57.1746C31.2236 57.3432 31.9822 56.9428 31.9822 56.9428V63.4123C31.9822 63.4123 31.2025 63.4966 30.5703 63.4333C30.1421 63.4048 29.7912 63.1732 29.3213 62.8631L29.3212 62.863L29.3211 62.863C29.0973 62.7152 28.8464 62.5496 28.5473 62.3797C27.62 61.8529 11.1829 52.3067 11.1829 52.3067L11.4779 41.7068ZM44.9001 32.9193C44.9001 32.9193 44.6051 33.1511 44.1204 32.9193L44.1077 32.913C43.6368 32.6822 43.7026 32.3907 44.1204 32.2027L44.1211 32.2024C44.433 32.0154 47.8329 30.0952 48.6729 29.6636L48.7014 29.6489L48.7354 29.6317L48.7355 29.6318C49.452 29.2736 50.3581 29.7583 50.4213 30.538C50.4846 31.3177 50.7164 50.4311 50.4213 51.5059C50.1263 52.5806 49.5363 53.0021 47.1971 54.2665C45.9438 54.944 44.3456 55.9421 43.106 56.7163L43.1059 56.7163L43.1058 56.7164C42.032 57.387 41.2273 57.8896 41.1491 57.87C40.9594 57.8068 40.9173 51.822 41.1491 51.527C41.289 51.3489 42.4347 50.7946 43.3905 50.3322L43.3906 50.3321L43.3909 50.332L43.3913 50.3318C44.0187 50.0283 44.5642 49.7644 44.6894 49.6725C44.9583 49.4612 44.9821 49.1799 45.0321 48.5892L45.0323 48.5871C45.0371 48.5303 45.0421 48.4708 45.0476 48.4081C45.0687 47.6495 44.9001 32.9193 44.9001 32.9193ZM39.1261 46.048L43.0879 43.9407V38.3773C43.0879 38.3537 43.0879 38.3306 43.088 38.3081C43.0881 38.2941 43.0882 38.2804 43.0882 38.2668V38.2667V38.2665C43.0907 37.7572 43.0916 37.5618 42.54 37.9559C42.1946 38.194 40.4026 39.2397 38.6734 40.2486L38.6733 40.2487L38.6731 40.2488L38.6726 40.2491C37.3419 41.0255 36.0486 41.7802 35.4804 42.1284C34.1739 42.9292 34.0264 43.2242 33.9842 44.3832C33.9586 45.0884 33.9641 55.4501 33.9724 63.7184H33.9355V82.1793L39.0937 83.2652V72.128L50.8007 65.2036C50.8007 65.2036 60.2204 59.9564 60.8105 59.4506C61.4005 58.9449 61.7166 58.6077 61.7588 57.849C61.7955 57.1889 61.7683 35.6388 61.7606 29.5567V29.5538L61.7606 29.5203L61.7604 29.4045C61.7594 28.5868 61.7588 28.081 61.7588 27.9882L61.759 27.8798C61.7609 27.1981 61.7617 26.9069 61.0001 27.1874C60.1994 27.4825 52.4655 31.9921 52.2758 32.1818C52.1312 32.3264 52.1581 34.0508 52.179 35.3944V35.3945V35.3945V35.3947V35.3949V35.3951V35.3953C52.1856 35.8139 52.1915 36.1955 52.1915 36.4807C52.1915 37.6819 52.1705 38.4406 52.1705 38.4406L56.1744 36.4807V55.7417C56.1744 55.7417 41.1702 64.6979 40.3273 65.2036C39.4843 65.7094 39.2315 65.7937 39.1261 65.2036C39.1116 65.1223 39.1011 64.6994 39.0937 64.0307V63.7184H39.0907C39.0514 59.2036 39.1261 46.048 39.1261 46.048Z" fill="white"/>
</svg>
